<svg id="Capa_1" enable-background="new 0 0 512 512" height="512" viewBox="0 0 512 512" width="512" xmlns="http://www.w3.org/2000/svg"><g><path d="m371.71 0h-231.42c-24.245 0-43.969 19.852-43.969 44.252v271.592c0 4.143 3.358 7.5 7.5 7.5s7.5-3.357 7.5-7.5v-244.956h218.189c4.142 0 7.5-3.357 7.5-7.5s-3.358-7.5-7.5-7.5h-218.189v-11.636c0-16.13 12.995-29.252 28.969-29.252h231.42c15.974 0 28.969 13.122 28.969 29.252v11.636h-36.508c-4.142 0-7.5 3.357-7.5 7.5s3.358 7.5 7.5 7.5h36.508v277.427c0 4.143 3.358 7.5 7.5 7.5s7.5-3.357 7.5-7.5v-304.063c0-24.4-19.724-44.252-43.969-44.252z"/><path d="m408.179 375.744c-4.142 0-7.5 3.357-7.5 7.5v22.938h-289.358v-55.339c0-4.143-3.358-7.5-7.5-7.5s-7.5 3.357-7.5 7.5v116.904c0 24.4 19.724 44.252 43.969 44.252h231.42c24.245 0 43.969-19.852 43.969-44.252v-84.504c0-4.141-3.358-7.499-7.5-7.499zm-36.469 121.256h-231.42c-15.974 0-28.969-13.122-28.969-29.252v-46.565h289.358v46.565c0 16.13-12.995 29.252-28.969 29.252z"/><path d="m256.179 436.621c-12.389 0-22.469 10.08-22.469 22.47s10.08 22.47 22.469 22.47 22.468-10.08 22.468-22.47-10.079-22.47-22.468-22.47zm0 29.94c-4.118 0-7.469-3.351-7.469-7.47s3.351-7.47 7.469-7.47 7.468 3.351 7.468 7.47-3.35 7.47-7.468 7.47z"/><path d="m169.964 189.789c-3.427-2.323-8.091-1.433-10.417 1.994-12.019 17.709-10.675 38.022-10.101 46.697 4.024 60.817 85.157 99.009 101.38 106.047 3.196 1.387 6.855 1.369 10.041-.045 16.372-7.27 98.242-46.548 102.175-106.002.604-9.131 2.21-33.386-14.324-52.146-14.263-16.184-33.745-19.145-41.458-19.666-24.203-1.646-42.19 11.698-51.015 20.13-8.827-8.433-26.806-21.788-51.015-20.13-4.135.279-8.514 1.022-12.663 2.15-3.998 1.085-6.358 5.206-5.272 9.203 1.086 3.998 5.206 6.36 9.204 5.271 3.21-.871 6.58-1.445 9.745-1.66 25.44-1.724 42.292 18.501 44.129 20.813 2.82 3.741 8.925 3.74 11.745 0 1.837-2.313 18.687-22.531 44.13-20.813 5.862.397 20.64 2.615 31.219 14.619 12.407 14.078 11.147 33.11 10.609 41.238-3.333 50.382-79.381 86.975-92.291 92.832-12.823-5.694-87.955-41.209-91.371-92.832-.512-7.739-1.578-23.842 7.544-37.283 2.326-3.427 1.434-8.091-1.994-10.417z"/><path d="m230.582 26.446c-4.142 0-7.5 3.357-7.5 7.5s3.358 7.5 7.5 7.5h50.837c4.142 0 7.5-3.357 7.5-7.5s-3.358-7.5-7.5-7.5z"/><path d="m328.45 29.779c-2.447-3.879-8.377-4.45-11.54-1.14-2.893 2.794-2.892 7.817 0 10.61 2.802 2.913 7.809 2.892 10.61 0 2.492-2.432 2.907-6.599.93-9.47z"/></g></svg>