<svg id="Capa_1" enable-background="new 0 0 512 512" height="512" viewBox="0 0 512 512" width="512" xmlns="http://www.w3.org/2000/svg"><g><path d="m58.964 451.066v3.113c0 11.657 9.484 21.142 21.141 21.142h47.29c11.657 0 21.141-9.484 21.141-21.142v-3.113c0-24.695-20.091-44.786-44.786-44.786s-44.786 20.091-44.786 44.786zm15 0c0-16.424 13.362-29.786 29.786-29.786s29.786 13.362 29.786 29.786v3.113c0 3.387-2.755 6.142-6.141 6.142h-47.29c-3.386 0-6.141-2.755-6.141-6.142z"/><path d="m408.194 406.045h-.388c-24.642 0-44.689 20.047-44.689 44.688v3.387c0 11.638 9.468 21.105 21.106 21.105h6.777c4.142 0 7.5-3.357 7.5-7.5s-3.358-7.5-7.5-7.5h-6.777c-3.367 0-6.106-2.739-6.106-6.105v-3.387c0-16.37 13.318-29.688 29.689-29.688h.388c16.371 0 29.689 13.318 29.689 29.688v3.387c0 3.366-2.739 6.105-6.106 6.105h-5.777c-4.142 0-7.5 3.357-7.5 7.5s3.358 7.5 7.5 7.5h5.777c11.638 0 21.106-9.468 21.106-21.105v-3.387c0-24.641-20.048-44.688-44.689-44.688z"/><path d="m408 304c-23.789 0-45.734 8.035-63.276 21.525l-49.071-24.813c.425-3.203.46-6.568.089-9.797-.465-4.117-4.178-7.078-8.294-6.612-4.116.465-7.076 4.179-6.611 8.294 1.798 14.974-10.243 28.502-25.337 28.403-14.061 0-25.5-11.439-25.5-25.5s11.439-25.5 25.5-25.5c2.917 0 5.771.486 8.486 1.444 3.905 1.376 8.19-.67 9.569-4.575 1.379-3.906-.669-8.19-4.576-9.569-1.953-.689-3.951-1.217-5.979-1.597v-48.007c53.622-4.098 96-49.041 96-103.695 0-20.858-6.153-40.982-17.795-58.195-2.319-3.431-6.982-4.332-10.414-2.011-3.431 2.32-4.332 6.983-2.011 10.414 9.957 14.722 15.22 31.939 15.22 49.791 0 49.075-39.925 89-89 89s-89-39.925-89-89 39.925-89 89-89c18.395 0 36.046 5.562 51.047 16.084 3.39 2.377 8.068 1.559 10.447-1.833 2.378-3.391 1.558-8.068-1.833-10.447-17.537-12.302-38.168-18.804-59.661-18.804-57.346 0-104 46.654-104 104 0 54.993 42.907 100.146 97 103.759v47.948c-18.759 3.529-33 20.024-33 39.792 0 2.08.159 4.124.463 6.121l-48.766 24.216c-17.47-13.376-39.295-21.337-62.947-21.337-29.207 0-57.221 12.413-76.858 34.057-2.783 3.068-2.553 7.812.515 10.595 3.067 2.783 7.81 2.551 10.594-.515 16.8-18.517 40.764-29.137 65.749-29.137 48.937 0 88.75 39.813 88.75 88.75s-39.813 88.751-88.75 88.751-88.75-39.813-88.75-88.75c0-11.052 2.004-21.83 5.957-32.037 1.496-3.862-.423-8.206-4.286-9.702-3.864-1.495-8.207.424-9.703 4.286-4.623 11.94-6.968 24.542-6.968 37.453 0 57.208 46.542 103.75 103.75 103.75s103.75-46.542 103.75-103.75c0-27.757-10.957-53.001-28.772-71.639l41.785-20.75c7.029 12.032 20.075 20.139 34.987 20.139 15.215 0 28.491-8.438 35.412-20.876l41.84 21.156c-17.806 18.674-28.752 43.943-28.752 71.72 0 57.346 46.654 104 104 104s104-46.654 104-104-46.654-104-104-104zm0 193c-49.075 0-89-39.925-89-89s39.925-89 89-89 89 39.925 89 89-39.925 89-89 89z"/><path d="m210.117 146.54v3.651c0 11.599 9.436 21.035 21.035 21.035h47.696c11.599 0 21.035-9.436 21.035-21.035v-3.651c0-24.535-19.96-44.496-44.496-44.496h-.774c-24.535 0-44.496 19.961-44.496 44.496zm15 0c0-16.264 13.231-29.496 29.496-29.496h.774c16.264 0 29.496 13.231 29.496 29.496v3.651c0 3.328-2.707 6.035-6.035 6.035h-47.696c-3.328 0-6.035-2.707-6.035-6.035z"/><path d="m284.688 61.309c0-16.161-13.148-29.309-29.309-29.309s-29.31 13.148-29.31 29.309 13.148 29.31 29.31 29.31 29.309-13.149 29.309-29.31zm-43.618 0c0-7.89 6.419-14.309 14.31-14.309s14.309 6.419 14.309 14.309-6.419 14.31-14.309 14.31-14.31-6.42-14.31-14.31z"/><path d="m408.379 395.618c16.161 0 29.309-13.147 29.309-29.309s-13.147-29.309-29.309-29.309-29.31 13.148-29.31 29.31 13.149 29.308 29.31 29.308zm0-43.618c7.89 0 14.309 6.419 14.309 14.31 0 7.89-6.419 14.309-14.309 14.309s-14.31-6.419-14.31-14.309c.001-7.891 6.42-14.31 14.31-14.31z"/><path d="m133.688 366.31c0-16.161-13.148-29.31-29.309-29.31s-29.31 13.148-29.31 29.31 13.148 29.309 29.31 29.309 29.309-13.148 29.309-29.309zm-43.618 0c0-7.891 6.419-14.31 14.31-14.31s14.309 6.419 14.309 14.31c0 7.89-6.419 14.309-14.309 14.309s-14.31-6.42-14.31-14.309z"/></g></svg>