<svg id="Capa_1" enable-background="new 0 0 512.001 512.001" height="512" viewBox="0 0 512.001 512.001" width="512" xmlns="http://www.w3.org/2000/svg"><g><path d="m504.469 304.5c4.143 0 7.5-3.357 7.5-7.5v-70.5c0-20.678-16.822-37.5-37.5-37.5h-37.065v-97c0-4.142-3.357-7.5-7.5-7.5s-7.5 3.358-7.5 7.5v97h-15.026v-141.5c0-9.649-7.854-17.5-17.509-17.5h-342.301c-9.654 0-17.509 7.851-17.509 17.5v138.5c0 4.142 3.357 7.5 7.5 7.5s7.5-3.358 7.5-7.5v-138.5c0-1.378 1.125-2.5 2.509-2.5h342.301c1.384 0 2.509 1.122 2.509 2.5v141.501h-38.066c-20.678 0-37.5 16.822-37.5 37.5v63.719h-269.244c-1.384 0-2.509-1.121-2.509-2.5v-66.72c0-4.142-3.357-7.5-7.5-7.5s-7.5 3.358-7.5 7.5v66.72c0 9.649 7.854 17.5 17.509 17.5h269.243v15h-284.468c-9.545 0-17.311-7.78-17.311-17.343v-270.535c0-9.562 7.766-17.342 17.311-17.342h372.75c9.545 0 17.311 7.78 17.311 17.342v24.658c0 4.142 3.357 7.5 7.5 7.5s7.5-3.358 7.5-7.5v-24.658c0-17.833-14.495-32.342-32.311-32.342h-372.75c-17.816 0-32.311 14.509-32.311 32.342v270.535c0 17.834 14.494 32.343 32.311 32.343h69.938l-11.245 18.9h-16.829c-12.925 0-23.44 10.516-23.44 23.44 0 12.926 10.516 23.441 23.44 23.441h49.621c4.143 0 7.5-3.357 7.5-7.5s-3.357-7.5-7.5-7.5h-49.621c-4.654 0-8.44-3.787-8.44-8.441s3.786-8.44 8.44-8.44h242.604v16.882h-157.845c-4.143 0-7.5 3.357-7.5 7.5s3.357 7.5 7.5 7.5h157.845v73.499c0 20.678 16.822 37.5 37.5 37.5h120.158c20.678 0 37.5-16.822 37.5-37.5v-142.501c0-4.143-3.357-7.5-7.5-7.5s-7.5 3.357-7.5 7.5v115.001h-165.158v-186.001h165.158v36c0 4.143 3.357 7.5 7.5 7.5zm-395.979 49.621 11.245-18.9h197.076v18.9zm388.479 107.88v12.5c0 12.406-10.094 22.5-22.5 22.5h-120.158c-12.406 0-22.5-10.094-22.5-22.5v-12.5zm-165.158-216v-19.5c0-12.407 10.094-22.5 22.5-22.5h120.158c12.406 0 22.5 10.093 22.5 22.5v19.5z"/><path d="m439.309 216.001h-50.712c-4.143 0-7.5 3.358-7.5 7.5s3.357 7.5 7.5 7.5h50.712c4.143 0 7.5-3.358 7.5-7.5s-3.358-7.5-7.5-7.5z"/></g></svg>